<svg width="512" height="512" viewBox="0 0 135.467 135.467" xml:space="preserve" xmlns="http://www.w3.org/2000/svg">
  <path fill-rule="evenodd" d="M512 0A512 512 0 0 0 0 512v1024a512 512 0 0 0 512 512h1536V0Z" style="font-variation-settings:normal;-inkscape-stroke:none" transform="matrix(.06615 0 0 .06615 0 0)" />
  <path fill="#a000c0" d="M512 128a384 384 0 0 0-384 384v1024h1792V128Z" color="#000" style="fill:#ff0c57;fill-opacity:1" transform="matrix(.06615 0 0 .06615 0 0)" />
    <text x="50%" y="125" font-size="24" text-anchor="middle" fill="white">cheese</text>
  <path d="M54.257 90.625c-7.357-2.752-7.768-3.263-6.201-7.702.933-2.644.924-2.73-.427-3.769-1.747-1.344-1.794-1.342-4.35.165-3.523 2.08-4.459 1.53-8.319-4.887-1.903-3.162-3.478-6.373-3.5-7.135-.03-1.013.685-1.826 2.663-3.026 2.12-1.287 2.708-1.996 2.724-3.285.02-1.827-.943-2.528-4.309-3.135-3.573-.644-3.815-1.35-2.666-7.77 1.238-6.913 1.983-9.349 2.979-9.73.423-.163 1.976-.063 3.45.222 1.476.285 2.854.53 3.064.544.209.014.715-.782 1.124-1.77.683-1.65.59-1.994-1.137-4.173-1.034-1.307-1.881-2.801-1.881-3.32 0-.993 11.103-10.684 12.24-10.684.362 0 1.713 1.11 3.003 2.465 2.03 2.134 2.587 2.412 4.143 2.07 1.682-.369 1.798-.577 1.798-3.238 0-1.594.414-3.434.942-4.188.884-1.262 1.388-1.346 8.136-1.346 6.749 0 7.253.084 8.137 1.346.528.754.942 2.594.942 4.188 0 2.661.115 2.869 1.798 3.239 1.556.341 2.114.063 4.143-2.07 1.29-1.357 2.641-2.466 3.003-2.466 1.136 0 12.24 9.691 12.24 10.683 0 .52-.847 2.014-1.882 3.32-1.725 2.18-1.82 2.525-1.137 4.173.41.989.916 1.785 1.125 1.77.21-.013 1.588-.258 3.063-.543 1.475-.285 3.028-.385 3.45-.223.996.382 1.742 2.818 2.98 9.732 1.149 6.418.906 7.125-2.667 7.77-3.366.606-4.33 1.307-4.308 3.134.015 1.289.604 1.998 2.724 3.285 1.978 1.2 2.693 2.013 2.663 3.026-.023.762-1.598 3.973-3.5 7.135-3.86 6.416-4.797 6.966-8.32 4.887-2.556-1.507-2.603-1.51-4.35-.165-1.35 1.04-1.36 1.125-.426 3.77 1.586 4.492 1.208 4.932-6.705 7.813-6.718 2.445-7.07 2.51-8.186 1.5-.64-.58-1.479-2.1-1.861-3.378-.644-2.146-.865-2.322-2.926-2.322-2.072 0-2.28.169-2.946 2.394-.767 2.56-2.14 4.305-3.3 4.198-.393-.037-3.646-1.163-7.23-2.504zm7.828-4.361c1.05-3.037 1.568-3.338 5.756-3.35 3.857-.01 5.008.736 5.65 3.658.225 1.024.742 1.99 1.15 2.147 1.302.5 9.763-3.113 9.497-4.056l-.874-3.093c-.726-2.564-.185-3.443 3.845-6.235l2.324-1.611 2.731 1.6 2.73 1.6.858-1.397c.471-.769 1.715-2.834 2.763-4.589l1.907-3.19-2.708-1.636c-1.49-.9-2.8-2.051-2.912-2.56-.328-1.48 1.183-7.388 2.022-7.907.422-.26 1.96-.652 3.418-.871 2.107-.316 2.589-.606 2.347-1.416-.167-.56-.618-2.869-1.002-5.131l-.699-4.114-3.388.18-3.387.18-1.993-3.02c-1.096-1.66-1.992-3.326-1.992-3.7 0-.374.824-1.717 1.831-2.985 1.008-1.268 1.757-2.5 1.665-2.737-.092-.237-1.896-1.87-4.008-3.628l-3.84-3.197-1.503 1.92c-2.398 3.064-3.22 3.258-7.232 1.707l-3.558-1.375-.181-3.447-.182-3.446H62.346l-.181 3.446-.182 3.447-3.557 1.375c-4.012 1.551-4.835 1.357-7.233-1.707l-1.502-1.92-3.84 3.197c-2.113 1.758-3.916 3.391-4.008 3.628-.092.238.657 1.47 1.664 2.737 1.008 1.268 1.832 2.611 1.832 2.985 0 .374-.896 2.04-1.992 3.7l-1.993 3.02-3.388-.18-3.387-.18-.699 4.114c-.384 2.262-.835 4.571-1.002 5.131-.242.81.24 1.1 2.347 1.416 1.458.219 2.996.61 3.418.871.839.519 2.35 6.427 2.022 7.908-.112.508-1.423 1.66-2.912 2.559l-2.708 1.636 1.906 3.19a652.044 652.044 0 0 0 2.764 4.589l.857 1.397 2.73-1.6 2.731-1.6 2.325 1.61c4.03 2.793 4.571 3.672 3.845 6.236-.35 1.234-.743 2.627-.875 3.095-.161.576 1.134 1.4 3.998 2.542 2.33.929 4.618 1.635 5.084 1.569.466-.066 1.22-1.197 1.675-2.512zm-.102-10.223c-6.402-2.126-11.823-6.784-14.369-12.347-1.892-4.135-1.888-13.134.008-17.28 3.26-7.125 10.986-12.432 18.926-13 4.463-.32 6.633.434 6.633 2.303 0 1.066-.429 1.19-4.127 1.19-6.508 0-10.021 1.34-14.027 5.35-5.266 5.27-6.847 12.117-4.437 19.206 1.472 4.329 6.812 9.524 11.098 10.797 6.834 2.03 13.197.76 18.044-3.597 4.197-3.774 5.75-7.211 6.144-13.599.292-4.736.424-5.16 1.658-5.335 1.02-.145 1.436.192 1.742 1.41.668 2.663-.14 9.493-1.49 12.574-1.876 4.29-6.666 9.04-11.139 11.047-4.433 1.99-10.843 2.55-14.664 1.28zM80.81 42.535c-3.659-3.63-4.357-5.628-1.966-5.628 1.806 0 7.81 6.15 7.3 7.478-.718 1.872-2.046 1.412-5.334-1.85z" />
</svg>