<svg width="512" height="512" viewBox="0 0 135.467 135.467" xml:space="preserve" xmlns="http://www.w3.org/2000/svg">
  <path fill-rule="evenodd" d="M406 0a135 135 0 0 1 136 135v271a135 135 0 0 1-136 136H0V0Z" style="font-variation-settings:normal;-inkscape-stroke:none" transform="matrix(.24994 0 0 .24994 0 0)" />
  <path fill="#ffc000" d="M406 34a102 102 0 0 1 102 101v271H34V34Z" color="#000" style="fill:#ff7b09;fill-opacity:1" transform="matrix(.24994 0 0 .24994 0 0)" />
    <text x="50%" y="125" font-size="24" text-anchor="middle" fill="white">gameplay</text>

  <path d="M59.667 89.717c-6.23-3.91-10.093-6.967-11.092-8.78-.89-1.614-1.07-11.87-.219-12.45.358-.243-.836-1.81-2.86-3.756-3.396-3.263-3.467-3.396-3.094-5.841.62-4.061.555-5.252-.534-9.954-2.243-9.688-.073-18.66 5.95-24.599 9.123-8.992 26.915-9.947 37.631-2.02 4.126 3.053 7.556 8.417 8.605 13.455.817 3.927.365 11.538-.948 15.959-.666 2.242-.747 3.476-.304 4.64 1.293 3.4.792 4.923-2.771 8.43-1.856 1.826-3.117 3.497-2.802 3.712.819.56.6 10.865-.264 12.432-.887 1.61-6.086 5.646-12.024 9.335-6.322 3.927-8.232 3.857-15.274-.563zm16.783-3.972c8.232-5.528 8.851-6.346 8.278-10.939-.367-2.93-.547-3.326-1.097-2.403-3.027 5.079-4.157 6.392-5.355 6.22-.797-.113-1.337-.689-1.46-1.556-.259-1.829-2.022-1.487-2.487.482-.434 1.838-2.117 2.278-2.54.664-.225-.861-.65-1.093-1.567-.854-.692.181-1.258.7-1.258 1.154 0 .453-.536.824-1.192.824-.656 0-1.192-.37-1.192-.824 0-1.413-2.24-1.557-3.14-.202-.937 1.41-2.225.95-2.225-.797 0-.636-.112-1.157-.25-1.157-.137 0-.64-.15-1.118-.334-.579-.222-.998.177-1.252 1.192-.211.84-.793 1.526-1.295 1.526-1.176 0-3.458-2.472-4.702-5.095-.537-1.132-1.165-2.057-1.396-2.056-.23 0-.5 1.59-.6 3.531-.162 3.168-.009 3.716 1.49 5.34.92.994 4.341 3.562 7.604 5.707 7.936 5.216 8.374 5.205 16.754-.423zm-9.87-12.667c0-1.093.318-1.49 1.192-1.49.883 0 1.192.397 1.192 1.532 0 1.247.25 1.496 1.341 1.341.862-.122 1.41-.67 1.532-1.532.206-1.449 1.251-1.747 2.333-.666 1.198 1.199 2.384.083 2.79-2.627.218-1.453.961-3.249 1.652-3.99 1.053-1.13 1.689-1.298 3.96-1.042 2.446.276 2.95.1 5.281-1.85l2.578-2.154-.371-3.621c-.26-2.526-.056-4.918.67-7.905 2.817-11.592-1.353-21.891-10.738-26.521-8.744-4.313-20.358-3.493-27.973 1.975-7.009 5.034-9.81 14.727-7.145 24.73.637 2.39.837 4.798.611 7.36l-.335 3.807 2.518 2.249c2.325 2.076 2.73 2.225 5.26 1.933 2.318-.268 2.935-.108 4 1.035.693.743 1.438 2.54 1.656 3.994.379 2.528 1.973 4.224 2.496 2.655.41-1.232 1.932-.756 2.52.787.346.913 1.034 1.49 1.773 1.49.89 0 1.207-.39 1.207-1.49zm-3.225-5.603c-1.336-1.476-1.177-3.473.545-6.867.818-1.613 1.488-3.37 1.488-3.904 0-2.645 3.28-3.237 4.232-.764.347.902 1.28 2.985 2.074 4.63 2.737 5.672 1.585 7.952-4.017 7.952-2.462 0-3.63-.283-4.322-1.047zm5.277-2.472c.526.437 1.128.623 1.338.413.385-.385-1.647-5.139-2.198-5.142-.485-.003-2.873 4.666-2.551 4.988.162.162.78-.008 1.375-.38.823-.514 1.306-.485 2.036.12zm-19.068-6.8c-1.2-1.2-1.463-2.055-1.463-4.76 0-2.799.262-3.59 1.739-5.243 1.687-1.888 1.9-1.953 7.166-2.155 7.08-.273 8.382.443 8.382 4.606 0 3.53-1.522 5.41-6.105 7.544-4.19 1.95-7.774 1.953-9.72.008zm9.322-2.9c2.751-1.45 4.38-3.795 3.76-5.413-.38-.987-1.504-1.183-6.389-1.11-4.38.066-6.24 2.4-4.992 6.266.452 1.403.852 1.64 2.761 1.64 1.228 0 3.415-.623 4.86-1.384zm18.355 3.54c-2.679-.957-5.703-3.075-6.49-4.544-.327-.612-.595-2.33-.595-3.82 0-3.962 1.392-4.704 8.32-4.434 4.898.19 5.505.35 6.977 1.822 1.29 1.29 1.662 2.301 1.861 5.066.22 3.063.076 3.64-1.273 5.094-1.216 1.31-2.035 1.634-4.083 1.613-1.41-.015-3.532-.373-4.717-.796zm6.86-3.1c.683-1.78.36-4.292-.722-5.63-.938-1.158-1.664-1.342-5.378-1.364-2.362-.014-4.571.252-4.91.59-1.582 1.583 1.03 5.159 4.901 6.709 2.319.928 5.7.76 6.109-.305zm-27.868 16.59c-.162-.574-.47-1.915-.684-2.98-.326-1.62-.65-1.93-1.982-1.896-.875.023-2.128.273-2.784.554-.992.427-.86.52.79.555 1.731.036 2.107.342 2.98 2.42.988 2.352 2.247 3.362 1.68 1.347zm24.653-1.341c1.03-2.017 1.513-2.39 3.142-2.426 1.616-.036 1.734-.124.733-.555-.656-.281-1.909-.53-2.784-.554-1.332-.035-1.656.275-1.982 1.896-.215 1.065-.522 2.406-.684 2.98-.515 1.832.319 1.122 1.575-1.341z" />
</svg>