<svg width="512" height="512" viewBox="0 0 135.467 135.467" xml:space="preserve" xmlns="http://www.w3.org/2000/svg">
  <path fill-rule="evenodd" d="M406 0a135 135 0 0 1 136 135v271a135 135 0 0 1-136 136H0V0Z" style="font-variation-settings:normal;-inkscape-stroke:none" transform="matrix(.24994 0 0 .24994 0 0)" />
  <path fill="#ffc000" d="M406 34a102 102 0 0 1 102 101v271H34V34Z" color="#000" style="fill:#1fe545;fill-opacity:1" transform="matrix(.24994 0 0 .24994 0 0)" />
    <text x="50%" y="125" font-size="24" text-anchor="middle" fill="white">honor</text>

  <path d="M29.73 92.73c-.22-.22-.4-14.555-.4-31.854V29.423l4.582-6.245c2.714-3.698 5-6.245 5.607-6.245.613 0 2.865 2.559 5.617 6.384l4.593 6.383v10.632h7.8V29.7l4.593-6.383c2.719-3.78 5.006-6.384 5.606-6.384.6 0 2.887 2.605 5.606 6.384l4.593 6.383v10.632h7.8V29.726l4.612-6.396c2.704-3.752 5.027-6.397 5.617-6.397.583 0 2.933 2.627 5.593 6.252l4.588 6.253-.156 31.695-.155 31.696-9.554.166c-7.242.126-9.672-.02-10.04-.6-.268-.421-.49-2.588-.496-4.815l-.009-4.05h-7.8v3.85c0 6.109.638 5.75-10.2 5.75-10.836 0-10.199.359-10.199-5.75v-3.85h-7.8v3.85c0 6.107.634 5.75-10.163 5.75-5.19 0-9.615-.18-9.835-.4zm16.4-32.465V30.4l-3.011-4.184c-1.656-2.3-3.236-4.26-3.511-4.353-.276-.094-1.891 1.734-3.59 4.062l-3.088 4.233V90.13h13.2zm-8 16.865c-.733-.732-.413-3.042.53-3.825 1.378-1.144 2.959.59 2.436 2.674-.37 1.473-2.009 2.109-2.966 1.151zm0-26.398c-.733-.733-.413-3.043.53-3.825 1.378-1.145 2.959.59 2.436 2.674-.37 1.473-2.009 2.108-2.966 1.15zm36.198 9.515V30.365l-3.041-4.316c-1.672-2.374-3.24-4.316-3.484-4.316-.244 0-1.778 1.816-3.41 4.035l-2.965 4.035-.3 6.614-.3 6.615-5.7.3-5.7.3-.174 4.65-.176 4.65h8.978l.186-2.25c.148-1.788.433-2.25 1.386-2.25 1.174 0 1.204.452 1.358 20.849l.158 20.849h13.184zM66.162 75.98c-.263-1.048-.073-1.867.588-2.528.904-.904 1.052-.904 1.956 0 .66.661.851 1.48.588 2.528-.528 2.105-2.604 2.105-3.132 0zm0-26.398c-.263-1.048-.073-1.868.588-2.529.904-.903 1.052-.903 1.956 0 1.316 1.317.654 4.08-.978 4.08-.765 0-1.313-.543-1.566-1.551zm36.364 10.563V30.158l-3.073-4.212c-1.69-2.317-3.262-4.213-3.491-4.213-.23 0-1.75 1.822-3.376 4.05l-2.96 4.05-.3 22.498-.3 22.5-1.31.186c-1.127.16-1.339-.136-1.5-2.1l-.189-2.286h-8.4v9l5.7.299 5.7.3.174 4.95.174 4.95h13.151zm-8.081 16.244c-.398-1.255.54-3.658 1.43-3.658.965 0 1.942 1.743 1.748 3.117-.261 1.84-2.638 2.244-3.178.54zM94.37 49.62c-.54-2.152 1.031-3.871 2.457-2.688 1.407 1.168.929 3.853-.73 4.089-1.01.143-1.423-.191-1.727-1.401zM57.829 75.13v-4.5h-8.4l-.176 4.677-.175 4.677 4.375-.177 4.376-.177zm-.3-13.199v-5.4h-7.8v10.8h7.8zm28.198.6v-4.8h-7.8v9.6h7.8zm.473-13.65-.173-5.25h-8.4l-.178 4.445c-.098 2.444-.039 4.806.131 5.25.22.569 1.554.805 4.552.805h4.242z" />
</svg>