<svg width="512" height="512" viewBox="0 0 135.467 135.467" xml:space="preserve" xmlns="http://www.w3.org/2000/svg">
  <path fill-rule="evenodd" d="M512 0A512 512 0 0 0 0 512v1024a512 512 0 0 0 512 512h1536V0Z" style="font-variation-settings:normal;-inkscape-stroke:none" transform="matrix(.06615 0 0 .06615 0 0)" />
  <path fill="#a000c0" d="M512 128a384 384 0 0 0-384 384v1024h1792V128Z" color="#000" style="fill:#9bf122;fill-opacity:1" transform="matrix(.06615 0 0 .06615 0 0)" />
    <text x="50%" y="125" font-size="24" text-anchor="middle" fill="white">meta</text>

  <path d="M43.796 92.435c-.17-.444-.23-2.794-.133-5.222l.177-4.415 3.541-.182 3.542-.182-3.003-1.715c-3.613-2.063-7.931-6.719-9.677-10.432-3.873-8.24-3.11-16.836 2.62-29.51 3.891-8.607 3.887-8.196.072-7.88-3.002.25-3.372.13-5.432-1.758-1.767-1.62-2.266-2.56-2.483-4.688-.516-5.055 2.777-8.866 8.105-9.378 6.171-.593 11.245 2.975 12.49 8.785.361 1.681.656 3.446.656 3.921 0 .525.586.865 1.49.865 1.459 0 1.49-.097 1.49-4.512 0-4.338.052-4.504 1.342-4.321 1.23.174 1.355.546 1.516 4.512.168 4.144.235 4.32 1.64 4.32 1.457 0 1.463-.025 1.463-6.001 0-5.883.027-5.998 1.341-5.812 1.272.181 1.35.49 1.512 6.002.168 5.709.196 5.812 1.618 5.812 1.42 0 1.45-.103 1.617-5.812.162-5.513.24-5.82 1.512-6.002 1.314-.186 1.34-.071 1.34 5.812 0 5.976.008 6.002 1.465 6.002 1.404 0 1.471-.177 1.64-4.321.16-3.966.285-4.338 1.515-4.512 1.29-.183 1.341-.017 1.341 4.321 0 4.415.032 4.512 1.49 4.512 1.162 0 1.49-.305 1.49-1.382 0-2.688 1.782-7.33 3.414-8.892 6.162-5.902 16.42-3.865 17.808 3.537 1.036 5.524-2.384 9.368-7.968 8.956-3.718-.275-3.726-.67.154 7.914 5.73 12.674 6.494 21.27 2.62 29.51-1.745 3.713-6.063 8.369-9.676 10.432l-3.003 1.715 3.541.182 3.542.183V92.93l-23.71.156c-19.505.128-23.764.013-24.019-.652zm45.046-4.57V85.48h-42.32v4.768h42.32zm-11.599-6.271C88.889 78.62 95.81 71.118 96.448 60.777c.345-5.583-.903-10.66-4.621-18.798-1.647-3.606-3.279-7.878-3.625-9.493-1.246-5.812.235-10.16 2.013-5.907 1.24 2.965 2.569 3.759 5.929 3.538 1.805-.12 3.427-2.289 3.427-4.585 0-3.249-2.632-5.617-6.242-5.617-4.903 0-8.29 2.774-8.968 7.344-.255 1.719.118 4.523 1.2 9.047 4.599 19.208 4.413 28.103-.695 33.363-2.858 2.943-6.13 4.343-12.13 5.192-5.73.81-13.355.029-17.467-1.79-9.171-4.057-10.907-13.771-6.09-34.082 1.587-6.697 2.089-9.925 1.823-11.73-.674-4.568-4.063-7.344-8.966-7.344-2.253 0-3.076.319-4.5 1.742-3.412 3.412-1.657 8.39 2.957 8.39 2.469 0 3.746-1.004 4.8-3.774.834-2.195 2.069-1.75 2.328.84.326 3.263-1.02 8.123-4.157 15.01-5.343 11.728-6.034 19.483-2.397 26.872 3.113 6.323 8.443 10.309 16.78 12.547 4.396 1.18 14.867 1.208 19.396.052zm-8.07-28.598V33.624h-2.98v38.744h2.98zm-5.961-.298V33.624h-2.98v38.148h2.98zm11.921 0V33.624h-2.98v38.148h2.98zm-18.022-.447-.158-18.329-1.856-.18c-1.61-.157-1.905.04-2.225 1.49-3.473 15.72-4.184 23.25-2.674 28.29.668 2.23 5.082 7.057 6.453 7.057.416 0 .566-5.971.46-18.328zm24.814 15.938c1.783-1.643 2.83-3.233 3.349-5.088 1.14-4.072.41-14.1-1.627-22.324-1.688-6.822-1.705-6.855-3.466-6.855h-1.77l-.157 18.329c-.107 12.357.043 18.328.46 18.328.34 0 1.785-1.075 3.211-2.39z" />
</svg>