<svg width="512" height="512" viewBox="0 0 135.467 135.467" xml:space="preserve" xmlns="http://www.w3.org/2000/svg">
  <path fill-rule="evenodd" d="M406 0a135 135 0 0 1 136 135v271a135 135 0 0 1-136 136H0V0Z" style="font-variation-settings:normal;-inkscape-stroke:none" transform="matrix(.24994 0 0 .24994 0 0)" />
  <path fill="#ffc000" d="M406 34a102 102 0 0 1 102 101v271H34V34Z" color="#000" style="fill:#2876ff;fill-opacity:1" transform="matrix(.24994 0 0 .24994 0 0)" />
    <text x="50%" y="125" font-size="24" text-anchor="middle" fill="white">reserved</text>

  <path d="M59.109 91.576c-1.184-1.505-1.24-2.292-1.24-17.676V57.799l-1.344.19c-1.17.167-1.395.653-1.727 3.749-.58 5.394-3.716 7.344-6.819 4.241-1.354-1.354-1.467-1.91-1.467-7.2s.113-5.847 1.467-7.201c.807-.807 1.872-1.468 2.366-1.468.76 0 .925-1.693 1.073-11.033l.175-11.033-1.793-.175c-1.74-.17-1.799-.277-1.973-3.613l-.18-3.437h16.125l.187-1.943.188-1.943h7.173l.187 1.943.188 1.943h16.124l-.18 3.437c-.172 3.312-.245 3.448-1.99 3.736l-1.81.3.022 10.663.02 10.663 1.892.795c2.676 1.125 3.182 2.483 3.182 8.544 0 4.496-.196 5.588-1.24 6.914-1.445 1.838-3.448 2.029-5.327.507-1.042-.844-1.34-1.756-1.412-4.334-.094-3.364-.529-4.137-2.333-4.153-.97-.009-1.046 1.15-1.046 16.05 0 15.342-.056 16.13-1.24 17.635-1.529 1.944-4.088 2.088-5.692.318-.945-1.044-1.189-2.486-1.437-8.518-.279-6.764-.381-7.262-1.495-7.262-1.113 0-1.216.498-1.494 7.263-.248 6.035-.492 7.476-1.438 8.519-1.603 1.767-4.163 1.624-5.692-.32zm4.14-9.134c.333-8.13.774-9.018 4.484-9.018 3.715 0 4.152.884 4.484 9.066.244 6.023.463 7.373 1.195 7.373.77 0 .94-2.457 1.196-17.336l.299-17.335 2.913.103c5.568.197 5.678.287 5.877 4.827.145 3.308.367 4.06 1.246 4.228.974.186 1.054-.286.896-5.332-.196-6.295.153-5.939-6.589-6.723l-3.427-.4-.87 2.084c-2.47 5.91-11.97 5.91-14.439 0l-.87-2.083-3.428.399c-6.75.785-6.416.446-6.416 6.526 0 4.346.166 5.337.896 5.337.691 0 .938-.924 1.074-4.03.199-4.547.308-4.636 5.877-4.833l2.913-.103.151 16.738c.084 9.206.286 17.096.45 17.535.162.438.632.685 1.043.55.52-.173.838-2.467 1.046-7.573zm7.726-27.901c2.301-1.936 2.537-5.105.54-7.231-1.78-1.894-2.185-1.75-2.4.858-.148 1.781-.432 2.241-1.382 2.241s-1.233-.46-1.38-2.241c-.216-2.603-.449-2.698-2.317-.942-2.117 1.988-1.909 5.326.455 7.315 1.012.85 2.47 1.547 3.242 1.547.772 0 2.23-.696 3.242-1.547zm-10.3-7.569c.928-1.397 2.554-2.944 3.613-3.437l1.925-.897.013-5.46c.012-4.962-.096-5.488-1.183-5.772-.808-.211-1.195-.815-1.195-1.863 0-1.54-.034-1.55-4.783-1.55h-4.782v21.52h2.352c2.103 0 2.53-.269 4.04-2.54zm20.509-8.22v-10.76H76.4c-4.748 0-4.782.011-4.782 1.55 0 1.049-.388 1.653-1.196 1.864-1.088.285-1.195.815-1.195 5.922 0 4.743.147 5.609.956 5.609.845 0 2.83 1.843 5.859 5.44.604.717 1.727 1.136 3.048 1.136h2.093zM68.742 27.246l.187-1.943 8.22-.166c6.688-.135 8.219-.327 8.219-1.03 0-.701-1.531-.893-8.22-1.028l-8.22-.167-.188-1.644c-.246-2.133-1.768-2.133-2.013 0l-.19 1.644-8.219.167c-6.688.135-8.22.327-8.22 1.029s1.532.894 8.22 1.029l8.22.166.187 1.943c.112 1.158.52 1.943 1.008 1.943.49 0 .897-.785 1.009-1.943z" />
  <path fill-rule="evenodd" d="M406 0a135 135 0 0 1 136 135v271a135 135 0 0 1-136 136H0V0Z" style="font-variation-settings:normal;-inkscape-stroke:none" transform="matrix(.24994 0 0 .24994 -279.135 -199.53)" />
  <path fill="#ffc000" d="M406 34a102 102 0 0 1 102 101v271H34V34Z" color="#000" style="fill:#fff;fill-opacity:1" transform="matrix(.24994 0 0 .24994 -279.135 -199.53)" />
</svg>