<svg width="512" height="512" viewBox="0 0 135.467 135.467" xml:space="preserve" xmlns="http://www.w3.org/2000/svg">
  <path fill-rule="evenodd" d="M406 0a135 135 0 0 1 136 135v271a135 135 0 0 1-136 136H0V0Z" style="font-variation-settings:normal;-inkscape-stroke:none" transform="matrix(.24994 0 0 .24994 0 0)" />
  <path fill="#ffc000" d="M406 34a102 102 0 0 1 102 101v271H34V34Z" color="#000" style="fill:#ffc100;fill-opacity:1" transform="matrix(.24994 0 0 .24994 0 0)" />
    <text x="50%" y="125" font-size="24" text-anchor="middle" fill="white">solo</text>

  <path d="M52.473 92.29c-4.044-1.761-5.885-6.447-4.283-10.902l.912-2.536h-3.111c-2.255 0-3.668-.375-5.134-1.361-6.007-4.043-2.83-12.923 4.624-12.923 2.39 0 2.577-.11 2.302-1.34-2.26-10.115-2.255-9.968-.343-9.968.884 0 1.287.89 2.089 4.612.546 2.537 1.127 5.081 1.29 5.654.36 1.265 3.192 1.445 3.192.203 0-1.642-8.853-40.762-9.497-41.965-.846-1.582-2.384-1.935-7.477-1.715-3.698.16-4.154.31-4.154 1.37 0 1.065.455 1.208 4.344 1.365 3.062.124 4.439.423 4.665 1.014.75 1.955 2.948 12.637 2.732 13.282-.129.388-.73.705-1.335.705-.909 0-1.332-1.037-2.43-5.951l-1.328-5.952h-3.5c-2.922 0-3.74-.24-4.96-1.46-1.883-1.883-1.862-4.145.056-6.063 1.447-1.447 1.776-1.508 7.131-1.312 5.37.196 5.695.286 7.469 2.06 1.493 1.495 2.106 2.943 3.147 7.44l1.293 5.584 2.797.181 2.797.18.166-7.62.167-7.62 14.102-.16 14.102-.159.182 2.838.182 2.838 5.952.297 5.951.298.174 4.612.174 4.613h2.87c3.312 0 6.006 1.686 6.01 3.763.006 2.675-7.881 28.671-9.106 30.012l-1.222 1.34H69.382c-25.29 0-26.12.036-27.274 1.19-1.53 1.53-1.53 4.421 0 5.952 1.155 1.155 1.984 1.19 28.206 1.19 22.404 0 27.07.14 27.331.82.542 1.41-.902 2.156-4.175 2.156-1.734 0-3.154.092-3.154.206 0 .113.434 1.075.964 2.138 2.66 5.331-1.903 11.945-8.236 11.937-5.874-.006-10.055-7.186-7.294-12.525l.908-1.756H63.086l.912 2.536C66.664 88.8 59.665 95.42 52.473 92.29zm7.536-3.87c1.288-1.288 1.74-2.304 1.74-3.914 0-3.024-2.63-5.654-5.655-5.654-3.024 0-5.654 2.63-5.654 5.654 0 1.61.452 2.626 1.74 3.914 2.401 2.401 5.428 2.401 7.829 0zm-5.186-3.315c-.206-.537-.09-1.262.26-1.611.906-.907 2.624-.078 2.388 1.152-.264 1.37-2.171 1.7-2.648.459zm32.563 3.315c1.288-1.288 1.74-2.304 1.74-3.914 0-3.024-2.63-5.654-5.654-5.654s-5.654 2.63-5.654 5.654c0 1.61.451 2.626 1.74 3.914 2.4 2.401 5.427 2.401 7.828 0zm-5.202-3.36c-.542-1.41.727-2.406 1.865-1.462.705.585.764.962.25 1.582-.891 1.074-1.674 1.03-2.115-.12zM64.536 62.337c-.186-1.228-.523-4.174-.748-6.547l-.408-4.315h-4.387c-3.11 0-4.388.217-4.39.744-.002.41.578 3.355 1.289 6.547l1.292 5.803h7.692zm10.901-4.315v-6.547h-4.826c-4.702 0-4.817.035-4.509 1.34.175.736.493 3.213.708 5.505.61 6.498.417 6.249 4.799 6.249h3.828zm10.96 2.53c.226-2.21.57-5.168.762-6.574l.35-2.556-4.697.175-4.697.176-.172 5.61c-.095 3.084-.037 5.963.13 6.397.207.541 1.498.789 4.107.789h3.806zm8.68 3.867c0-.083.804-2.961 1.786-6.397.982-3.436 1.785-6.314 1.785-6.397 0-.082-1.856-.15-4.126-.15-4.748 0-4.51-.304-5.099 6.547-.21 2.455-.515 4.932-.678 5.505-.255.903.148 1.042 3.019 1.042 1.822 0 3.313-.068 3.313-.15zM62.632 45.67c-.192-1.555-.536-4.434-.766-6.398l-.417-3.57-5.207-.173c-3.94-.13-5.207.015-5.21.596-.002.421.578 3.378 1.289 6.57l1.292 5.802h9.367zm12.805-3.72v-6.546h-11.44l.343 1.934c.19 1.064.524 4.01.744 6.547l.4 4.612h9.953zm12.696 3.72c.194-1.555.53-4.5.75-6.546l.396-3.72H77.818v6.15c0 3.382.178 6.328.396 6.547.219.218 2.46.396 4.983.396h4.585zm13.16-2.87c.889-3.132 1.47-6.078 1.29-6.546-.247-.644-1.542-.85-5.33-.85H92.25l-.358 1.793c-.198.987-.538 3.933-.756 6.547l-.396 4.753h8.936zM76.156 27.817l.174-4.612 2.827-.181c2.552-.164 2.827-.323 2.827-1.637V19.93H58.772v12.498h17.21zm17.731 1.34v-3.274H79.008v6.547h14.879zM44.551 46.75c-1.014-.626-.438-2.419.777-2.419 1.306 0 1.795 1.192.868 2.119-.512.511-1.124.623-1.645.3z" />
</svg>